<svg width="18.000000" height="16.000000" viewBox="0 0 18 16" fill="none" xmlns="http://www.w3.org/2000/svg" xmlns:xlink="http://www.w3.org/1999/xlink">
	<desc>
			Created with Pixso.
	</desc>
	<defs/>
	<path id="Shape" d="M17.7923 8.76154C16.7538 10.5238 15.1854 11.9409 13.3063 12.8081L14.8099 14.9563C14.9286 15.1259 14.8874 15.3598 14.7177 15.4785L14.0697 15.9322C13.9 16.051 13.6662 16.0097 13.5474 15.84L3.19012 1.04373C3.07135 0.874084 3.11261 0.640228 3.28229 0.521484L3.9303 0.0678101C4.09998 -0.0509644 4.3338 -0.00967407 4.45258 0.159973L6.18774 2.63889C7.0816 2.38574 8.02527 2.25 9 2.25C12.7456 2.25 16.0311 4.24982 17.7923 7.23846C18.0692 7.7084 18.0692 8.2916 17.7923 8.76154ZM9.74493 3.78104C12.6351 4.02283 15.1201 5.65836 16.5 8C15.5721 9.57455 14.1445 10.8297 12.4302 11.5566L11.5959 10.3649C13.2731 9.06931 13.7072 6.7886 12.7499 4.99869L12.75 5C12.75 5.96649 11.9665 6.75 11 6.75C10.0335 6.75 9.25 5.96649 9.25 5C9.25 4.52594 9.43884 4.09619 9.74493 3.78104ZM1.5 8C2.99713 10.5406 5.7951 12.25 9 12.25C9.07947 12.2499 9.15894 12.2487 9.23834 12.2465L10.239 13.676C9.82782 13.7253 9.41412 13.75 9 13.75C5.25439 13.75 1.96887 11.7502 0.207703 8.76157C-0.0692139 8.29163 -0.0692139 7.7084 0.207703 7.23846C0.997559 5.89816 2.09381 4.75732 3.40009 3.90622L4.26074 5.13568C3.12811 5.86432 2.17987 6.84634 1.5 8ZM4.86786 6.00302C4.26532 8.5079 6.00684 10.9415 8.52191 11.2231L4.86786 6.00302Z" clip-rule="evenodd" fill="#828FA3" fill-opacity="1.000000" fill-rule="evenodd"/>
</svg>
